<svg width="24" height="24" viewBox="0 0 24 24" fill="none" xmlns="http://www.w3.org/2000/svg">
<path fill-rule="evenodd" clip-rule="evenodd" d="M12 24C18.6274 24 24 18.6274 24 12C24 5.37258 18.6274 0 12 0C5.37258 0 0 5.37258 0 12C0 18.6274 5.37258 24 12 24ZM16.7215 4.3099C17.0604 4.44794 17.282 4.77745 17.282 5.14339V8.4008C17.282 8.89787 16.8791 9.30081 16.382 9.30081H13.2C12.838 9.30081 12.5111 9.08381 12.3706 8.75009C12.23 8.41637 12.3032 8.03094 12.5562 7.77191L13.47 6.83646C11.7354 6.30172 9.77604 6.73564 8.40116 8.14315C6.39961 10.1922 6.39961 13.5228 8.40116 15.5718C10.3912 17.609 13.6088 17.609 15.5988 15.5718C16.4123 14.7391 16.8966 13.6934 17.0483 12.6054C17.1181 12.1038 17.5166 11.6819 18.023 11.6819C18.5095 11.6819 18.9131 12.0714 18.866 12.5556C18.7148 14.1127 18.0565 15.6318 16.8864 16.8296C14.1902 19.5898 9.80976 19.5898 7.11355 16.8296C4.42882 14.0813 4.42882 9.63372 7.11355 6.88536C9.19861 4.75086 12.2928 4.26558 14.8376 5.43644L15.7382 4.5145C15.994 4.25272 16.3826 4.17184 16.7215 4.3099Z" fill="#DFEEB7"/>
</svg>
