<svg width="79" height="30" viewBox="0 0 79 30" fill="none" xmlns="http://www.w3.org/2000/svg">
<rect x="1.25" y="1.25" width="76.4286" height="18.8699" stroke="url(#paint0_linear_88_312)" stroke-width="2.5"/>
<rect x="1.25" y="19.7431" width="76.4286" height="9.00685" stroke="url(#paint1_linear_88_312)" stroke-width="2.5"/>
<path d="M27.835 12.9536C27.835 12.8139 27.8135 12.6886 27.7705 12.5776C27.7311 12.463 27.6559 12.3592 27.5449 12.2661C27.4339 12.1694 27.2782 12.0745 27.0776 11.9814C26.8771 11.8883 26.6175 11.7916 26.2988 11.6914C25.9443 11.5768 25.6077 11.4479 25.2891 11.3047C24.974 11.1614 24.6947 10.9949 24.4512 10.8051C24.2113 10.6118 24.0215 10.388 23.8818 10.1338C23.7458 9.87953 23.6777 9.58412 23.6777 9.24753C23.6777 8.92168 23.7493 8.62627 23.8926 8.3613C24.0358 8.09274 24.2363 7.86358 24.4941 7.6738C24.752 7.48044 25.0563 7.33184 25.4072 7.228C25.7617 7.12416 26.1502 7.07224 26.5728 7.07224C27.1493 7.07224 27.6523 7.17608 28.082 7.38376C28.5117 7.59144 28.8447 7.87611 29.0811 8.23776C29.321 8.59942 29.4409 9.01299 29.4409 9.47849H27.8403C27.8403 9.24932 27.792 9.0488 27.6953 8.87692C27.6022 8.70147 27.459 8.56361 27.2656 8.46335C27.0758 8.36309 26.8359 8.31296 26.5459 8.31296C26.2666 8.31296 26.0339 8.35593 25.8477 8.44186C25.6615 8.52422 25.5218 8.63701 25.4287 8.78024C25.3356 8.91989 25.2891 9.07744 25.2891 9.2529C25.2891 9.38539 25.3213 9.50534 25.3857 9.61276C25.4538 9.72018 25.554 9.82044 25.6865 9.91354C25.819 10.0066 25.9819 10.0944 26.1753 10.1767C26.3687 10.2591 26.5924 10.3397 26.8467 10.4184C27.2728 10.5473 27.647 10.6924 27.9692 10.8535C28.2951 11.0146 28.5672 11.1954 28.7856 11.396C29.0041 11.5965 29.1688 11.8239 29.2798 12.0781C29.3908 12.3323 29.4463 12.6206 29.4463 12.9428C29.4463 13.283 29.38 13.5874 29.2476 13.8559C29.1151 14.1245 28.9235 14.3519 28.6729 14.5381C28.4222 14.7243 28.1232 14.8657 27.7759 14.9624C27.4285 15.0591 27.04 15.1074 26.6104 15.1074C26.2236 15.1074 25.8423 15.0573 25.4663 14.957C25.0903 14.8532 24.7484 14.6974 24.4404 14.4897C24.1361 14.282 23.8926 14.0171 23.71 13.6948C23.5273 13.3725 23.436 12.9912 23.436 12.5508H25.0527C25.0527 12.7942 25.0903 13.0001 25.1655 13.1684C25.2407 13.3367 25.3464 13.4728 25.4824 13.5766C25.6221 13.6805 25.7868 13.7557 25.9766 13.8022C26.1699 13.8488 26.3812 13.872 26.6104 13.872C26.8896 13.872 27.1188 13.8327 27.2979 13.7539C27.4805 13.6751 27.6147 13.5659 27.7007 13.4262C27.7902 13.2866 27.835 13.129 27.835 12.9536ZM33.5874 12.2124H31.5947V10.9555H33.5874C33.8953 10.9555 34.146 10.9054 34.3394 10.8051C34.5327 10.7013 34.6742 10.5581 34.7637 10.3755C34.8532 10.1928 34.8979 9.98695 34.8979 9.75778C34.8979 9.52503 34.8532 9.3084 34.7637 9.10788C34.6742 8.90736 34.5327 8.74623 34.3394 8.62448C34.146 8.50274 33.8953 8.44186 33.5874 8.44186H32.1533V15H30.542V7.17966H33.5874C34.1997 7.17966 34.7243 7.29066 35.1611 7.51266C35.6016 7.73109 35.9382 8.03366 36.1709 8.42038C36.4036 8.8071 36.52 9.24932 36.52 9.74704C36.52 10.2519 36.4036 10.6888 36.1709 11.0576C35.9382 11.4264 35.6016 11.7111 35.1611 11.9116C34.7243 12.1121 34.1997 12.2124 33.5874 12.2124ZM39.9199 8.51706L37.793 15H36.0796L38.9854 7.17966H40.0757L39.9199 8.51706ZM41.687 15L39.5547 8.51706L39.3828 7.17966H40.4839L43.4058 15H41.687ZM41.5903 12.0888V13.351H37.46V12.0888H41.5903ZM48.5674 12.4057H50.1733C50.1411 12.9321 49.9961 13.3994 49.7383 13.8076C49.484 14.2158 49.1278 14.5345 48.6694 14.7636C48.2147 14.9928 47.6668 15.1074 47.0259 15.1074C46.5246 15.1074 46.0752 15.0215 45.6777 14.8496C45.2803 14.6741 44.9401 14.4235 44.6572 14.0976C44.3779 13.7718 44.1649 13.3779 44.0181 12.916C43.8713 12.4541 43.7979 11.9367 43.7979 11.3637V10.8213C43.7979 10.2483 43.873 9.73093 44.0234 9.26901C44.1774 8.80352 44.3958 8.40785 44.6787 8.082C44.9652 7.75615 45.3071 7.5055 45.7046 7.33005C46.1021 7.15459 46.5461 7.06686 47.0366 7.06686C47.6883 7.06686 48.238 7.18503 48.6855 7.42136C49.1367 7.65768 49.4858 7.98353 49.7329 8.3989C49.9836 8.81426 50.134 9.28692 50.1841 9.81686H48.5728C48.5549 9.50176 48.4922 9.235 48.3848 9.01657C48.2773 8.79457 48.1144 8.62806 47.896 8.51706C47.6812 8.40248 47.3947 8.34518 47.0366 8.34518C46.7681 8.34518 46.5335 8.39531 46.333 8.49557C46.1325 8.59584 45.9642 8.74802 45.8281 8.95212C45.6921 9.15622 45.59 9.41403 45.522 9.72556C45.4575 10.0335 45.4253 10.3952 45.4253 10.8105V11.3637C45.4253 11.7684 45.4557 12.1246 45.5166 12.4326C45.5775 12.7369 45.6706 12.9948 45.7959 13.206C45.9248 13.4137 46.0895 13.5713 46.29 13.6787C46.4941 13.7825 46.7394 13.8344 47.0259 13.8344C47.3625 13.8344 47.64 13.7807 47.8584 13.6733C48.0768 13.5659 48.2433 13.4065 48.3579 13.1953C48.4761 12.984 48.5459 12.7208 48.5674 12.4057ZM56.479 13.7431V15H52.3164V13.7431H56.479ZM52.8428 7.17966V15H51.2314V7.17966H52.8428ZM55.9365 10.3647V11.5893H52.3164V10.3647H55.9365ZM56.4736 7.17966V8.44186H52.3164V7.17966H56.4736Z" fill="url(#paint2_linear_88_312)"/>
<defs>
<linearGradient id="paint0_linear_88_312" x1="39.4643" y1="0" x2="39.4643" y2="21.3699" gradientUnits="userSpaceOnUse">
<stop stop-color="#C4D0A2"/>
<stop offset="1" stop-color="#646A53"/>
</linearGradient>
<linearGradient id="paint1_linear_88_312" x1="38.5" y1="-86.5" x2="39.1606" y2="30.0017" gradientUnits="userSpaceOnUse">
<stop stop-color="#C4D0A2"/>
<stop offset="1" stop-color="#646A53"/>
</linearGradient>
<linearGradient id="paint2_linear_88_312" x1="39.8931" y1="5.99997" x2="39.8931" y2="16" gradientUnits="userSpaceOnUse">
<stop stop-color="#C4D0A2"/>
<stop offset="1" stop-color="#646A53"/>
</linearGradient>
</defs>
</svg>
